<?xml version="1.0" encoding="UTF-8" standalone="no"?>
<!-- Created with Inkscape (http://www.inkscape.org/) -->

<svg
   width="71.257179mm"
   height="73.32843mm"
   viewBox="0 0 71.257179 73.32843"
   version="1.1"
   id="svg3973"
   xmlns="http://www.w3.org/2000/svg"
   xmlns:svg="http://www.w3.org/2000/svg">
  <defs
     id="defs3970" />
  <g
     id="layer1"
     transform="translate(-81.592905,-142.94995)">
    <g
       id="g7010"
       transform="matrix(0.8177084,0,0,0.8177084,20.611285,-13.133474)">
      <g
         id="g21186"
         transform="matrix(0.7255401,0,0,0.7255401,20.072208,-6.5450381)">
        <rect
           style="fill:#000000;fill-opacity:1;stroke:none;stroke-width:0.560226;stroke-dasharray:none;stroke-opacity:1"
           id="rect20971"
           width="2.1703196"
           height="15.775699"
           x="104.13328"
           y="152.70401"
           ry="0" />
        <path
           style="fill:#ce8418;fill-opacity:1;stroke:#000000;stroke-width:1.22293;stroke-dasharray:none;stroke-opacity:1"
           d="m 87.821645,129.10501 c -0.65703,-2.55478 -0.16639,-0.87141 -0.66308,-2.56062 -0.308967,-1.05078 -4.04764,-0.38433 -6.248923,0.18922 -4.121747,1.07395 -6.234793,1.64676 -5.715949,4.75335 0.595351,3.56468 4.223782,22.40592 8.212205,27.51236 1.307867,1.67449 11.318798,-0.39033 21.319502,-2.4573 9.90389,-2.04698 21.05179,-4.40304 20.22798,-7.57394 -5.20426,-20.03116 -4.23781,-26.26474 -10.01807,-25.35828 -16.033014,3.39415 -13.04449,2.47249 -27.113665,5.49521 z"
           id="path4325-2" />
        <path
           style="fill:#b1b1b1;fill-opacity:1;stroke:#000000;stroke-width:1.33789;stroke-dasharray:none;stroke-opacity:1"
           id="path8526"
           d="m 145.56573,96.496628 a 17.631378,37.778908 0 0 1 -8.81568,32.717492 17.631378,37.778908 0 0 1 -17.63138,0 17.631378,37.778908 0 0 1 -8.81569,-32.717492 h 17.63138 z"
           transform="matrix(0.98535442,0.17051879,-0.16821683,0.98575002,0,0)" />
        <path
           style="fill:#f5be39;fill-opacity:1;stroke:#000000;stroke-width:1.22293;stroke-dasharray:none;stroke-opacity:1"
           d="m 105.06471,133.84494 c 0,0 14.80082,-3.61435 32.27837,-6.90478 3.38147,-0.63662 -6.35465,22.96365 -12.39898,24.78432 -5.40727,1.62878 -42.546535,10.65245 -40.977452,7.35373 3.237984,-6.80728 8.301709,-22.76229 12.305113,-23.54322 10.401999,-2.0291 8.792949,-1.69005 8.792949,-1.69005 z"
           id="path4325" />
        <rect
           style="fill:#856235;fill-opacity:1;stroke:#000000;stroke-width:0.939915;stroke-dasharray:none;stroke-opacity:1"
           id="rect10037"
           width="5.3658223"
           height="85.671944"
           x="124.88689"
           y="17.819212"
           ry="3.1439247"
           transform="matrix(0.97619582,0.21689104,-0.16313286,0.98660411,0,0)" />
        <rect
           style="fill:#b0b0b0;fill-opacity:1;stroke:#000000;stroke-width:0.885401;stroke-dasharray:none;stroke-opacity:1"
           id="rect15601"
           width="18.294369"
           height="5.8006539"
           x="118.67039"
           y="20.820217"
           ry="2.900327"
           transform="rotate(9.7040602)" />
        <rect
           style="fill:#000000;fill-opacity:1;stroke:none;stroke-width:1.33861;stroke-dasharray:none;stroke-opacity:1"
           id="rect20971-2"
           width="2.1703196"
           height="90.068687"
           x="167.91261"
           y="-150.78909"
           ry="0"
           transform="rotate(90)" />
        <rect
           style="fill:#000000;fill-opacity:1;stroke:none;stroke-width:0.560226;stroke-dasharray:none;stroke-opacity:1"
           id="rect20971-8"
           width="2.1703196"
           height="15.775699"
           x="60.711662"
           y="167.94664"
           ry="0" />
        <rect
           style="fill:#000000;fill-opacity:1;stroke:none;stroke-width:0.560226;stroke-dasharray:none;stroke-opacity:1"
           id="rect20971-9"
           width="2.1703196"
           height="15.775699"
           x="148.62074"
           y="167.94902"
           ry="0" />
        <rect
           style="fill:#000000;fill-opacity:1;stroke:none;stroke-width:0.560226;stroke-dasharray:none;stroke-opacity:1"
           id="rect20971-6"
           width="2.1703196"
           height="15.775699"
           x="104.12231"
           y="166.56148"
           ry="0" />
        <path
           style="fill:#ce8418;fill-opacity:1;stroke:#000000;stroke-width:0.471611;stroke-dasharray:none;stroke-opacity:1"
           d="m 57.576462,183.59203 c -0.253377,-0.98523 -0.06417,-0.33605 -0.25571,-0.98748 -0.11915,-0.40522 -1.560932,-0.14822 -2.409836,0.0729 -1.58951,0.41416 -2.404385,0.63506 -2.204298,1.83308 0.229591,1.37469 1.628859,8.64062 3.166955,10.60988 0.504366,0.64575 4.364982,-0.15054 8.221654,-0.94764 3.819338,-0.78939 8.118414,-1.69799 7.80072,-2.92081 -2.006971,-7.72482 -1.634269,-10.12874 -3.863369,-9.77917 -6.182973,1.30891 -5.030478,0.95349 -10.456116,2.11917 z"
           id="path4325-2-3" />
        <path
           style="fill:#f5be39;fill-opacity:1;stroke:#000000;stroke-width:0.471611;stroke-dasharray:none;stroke-opacity:1"
           d="m 64.226079,185.41994 c 0,0 5.707789,-1.39384 12.447833,-2.66277 1.30403,-0.24551 -2.450608,8.85571 -4.781544,9.55783 -2.08526,0.62813 -16.407648,4.10801 -15.802547,2.8359 1.248696,-2.62517 3.201472,-8.77806 4.745344,-9.07922 4.011428,-0.7825 3.390914,-0.65174 3.390914,-0.65174 z"
           id="path4325-7" />
        <path
           style="fill:#ce8418;fill-opacity:1;stroke:#000000;stroke-width:0.471611;stroke-dasharray:none;stroke-opacity:1"
           d="m 145.32579,183.65064 c -0.25338,-0.98523 -0.0642,-0.33605 -0.25571,-0.98748 -0.11915,-0.40522 -1.56094,-0.14822 -2.40984,0.0729 -1.58951,0.41416 -2.40439,0.63506 -2.2043,1.83308 0.22959,1.37469 1.62886,8.64062 3.16696,10.60988 0.50436,0.64575 4.36498,-0.15054 8.22165,-0.94764 3.81934,-0.78939 8.11841,-1.69799 7.80072,-2.92081 -2.00697,-7.72482 -1.63427,-10.12874 -3.86337,-9.77917 -6.18297,1.30891 -5.03048,0.95349 -10.45611,2.11917 z"
           id="path4325-2-3-6" />
        <path
           style="fill:#f5be39;fill-opacity:1;stroke:#000000;stroke-width:0.471611;stroke-dasharray:none;stroke-opacity:1"
           d="m 151.9754,185.47855 c 0,0 5.70779,-1.39384 12.44783,-2.66277 1.30403,-0.24551 -2.4506,8.85571 -4.78154,9.55783 -2.08526,0.62813 -16.40765,4.10801 -15.80255,2.8359 1.2487,-2.62517 3.20148,-8.77806 4.74535,-9.07922 4.01143,-0.7825 3.39091,-0.65174 3.39091,-0.65174 z"
           id="path4325-7-9" />
        <path
           style="fill:#ce8418;fill-opacity:1;stroke:#000000;stroke-width:0.471611;stroke-dasharray:none;stroke-opacity:1"
           d="m 100.74706,181.91087 c -0.25337,-0.98523 -0.0642,-0.33605 -0.25571,-0.98748 -0.11915,-0.40522 -1.560933,-0.14822 -2.409833,0.0729 -1.589512,0.41416 -2.404387,0.63506 -2.2043,1.83308 0.229591,1.37469 1.62886,8.64062 3.16696,10.60988 0.50436,0.64575 4.364983,-0.15054 8.221653,-0.94764 3.81934,-0.78939 8.11841,-1.69799 7.80072,-2.92081 -2.00697,-7.72482 -1.63427,-10.12874 -3.86337,-9.77917 -6.18297,1.30891 -5.03048,0.95349 -10.45612,2.11917 z"
           id="path4325-2-3-5" />
        <path
           style="fill:#f5be39;fill-opacity:1;stroke:#000000;stroke-width:0.471611;stroke-dasharray:none;stroke-opacity:1"
           d="m 107.39668,183.73878 c 0,0 5.70779,-1.39384 12.44784,-2.66277 1.30403,-0.24551 -2.45061,8.85571 -4.78155,9.55783 -2.08526,0.62813 -16.407653,4.10801 -15.802553,2.8359 1.248703,-2.62517 3.201483,-8.77806 4.745353,-9.07922 4.01143,-0.7825 3.39091,-0.65174 3.39091,-0.65174 z"
           id="path4325-7-97" />
      </g>
      <g
         id="g29119">
        <rect
           style="fill:#000000;fill-opacity:1;stroke:none;stroke-width:0.85701;stroke-dasharray:none;stroke-opacity:1"
           id="rect27797-9-4"
           width="36.81184"
           height="1.8963674"
           x="74.576241"
           y="276.4772"
           ry="0" />
        <rect
           style="fill:#000000;fill-opacity:1;stroke:none;stroke-width:0.718576;stroke-dasharray:none;stroke-opacity:1"
           id="rect27797-9-9"
           width="25.879841"
           height="1.8963674"
           x="74.910889"
           y="262.0871"
           ry="0" />
        <rect
           style="fill:#000000;fill-opacity:1;stroke:none;stroke-width:0.550172;stroke-dasharray:none;stroke-opacity:1"
           id="rect27797-9"
           width="15.170941"
           height="1.8963674"
           x="74.576241"
           y="247.47392"
           ry="0" />
        <rect
           style="opacity:1;fill:#000000;fill-opacity:1;stroke:none;stroke-width:0.634699;stroke-dasharray:none;stroke-opacity:1"
           id="rect27797"
           width="20.190737"
           height="1.8963674"
           x="74.576248"
           y="220.81322"
           ry="0" />
        <rect
           style="opacity:1;fill:#8a8a8a;fill-opacity:1;stroke:#ffffff;stroke-width:0.49857;stroke-dasharray:none;stroke-opacity:1"
           id="rect27450"
           width="10.420498"
           height="49.339085"
           x="31.064081"
           y="-313.52759"
           ry="2.3755856"
           transform="matrix(-0.80806503,0.58909329,-0.58990397,-0.80747341,0,0)" />
        <ellipse
           style="opacity:1;fill:#8a8a8a;fill-opacity:1;stroke:#ffffff;stroke-width:0.377756;stroke-dasharray:none;stroke-opacity:1"
           id="path21468"
           cx="114.62373"
           cy="218.08554"
           rx="27.291826"
           ry="27.017599" />
        <circle
           style="opacity:1;fill:#cfdfe6;fill-opacity:1;stroke:#ffffff;stroke-width:0.390074;stroke-dasharray:none;stroke-opacity:1"
           id="path21362"
           cx="114.62374"
           cy="217.94844"
           r="21.526884" />
        <path
           id="rect27504"
           style="opacity:1;fill:#000000;fill-opacity:1;stroke:none;stroke-width:0.511496;stroke-dasharray:none;stroke-opacity:1"
           d="m 93.381746,219.97101 0.132591,1.01894 0.139563,0.90042 0.374693,1.66683 9.979017,-0.004 v -3.58957 z" />
        <path
           style="fill:#ce8418;fill-opacity:1;stroke:#ffffff;stroke-width:0.831738;stroke-dasharray:none;stroke-opacity:1"
           d="m 120.7412,303.08885 c -0.44686,-1.73756 -0.11317,-0.59266 -0.45097,-1.74153 -0.21014,-0.71465 -2.75289,-0.26138 -4.25002,0.1287 -2.80328,0.73041 -4.2404,1.11999 -3.88753,3.23284 0.40491,2.42441 2.87268,15.2387 5.58528,18.71169 0.88951,1.13885 7.69814,-0.26548 14.49981,-1.67126 6.73582,-1.39219 14.31772,-2.99459 13.75743,-5.15118 -3.53951,-13.62358 -2.88221,-17.86315 -6.81348,-17.24666 -10.90436,2.30843 -8.87181,1.68159 -18.44052,3.7374 z"
           id="path4325-2-1"
           transform="matrix(0.7255401,0,0,0.7255401,20.072208,-6.5450382)" />
        <path
           style="fill:#f5be39;fill-opacity:1;stroke:#ffffff;stroke-width:0.831738;stroke-dasharray:none;stroke-opacity:1"
           d="m 132.46853,306.31257 c 0,0 10.06632,-2.45819 21.95314,-4.69607 2.29981,-0.43299 -4.32191,15.61801 -8.43278,16.85628 -3.67759,1.10777 -28.93671,7.24494 -27.86956,5.00142 2.20223,-4.62976 5.64616,-15.48107 8.36895,-16.0122 7.0746,-1.38002 5.98025,-1.14943 5.98025,-1.14943 z"
           id="path4325-9"
           transform="matrix(0.7255401,0,0,0.7255401,20.072208,-6.5450382)" />
        <path
           style="fill:#ce8418;fill-opacity:1;stroke:#000000;stroke-width:0.37005;stroke-dasharray:none;stroke-opacity:1"
           d="m 98.418085,346.5157 c -0.198812,-0.77306 -0.05035,-0.26368 -0.200643,-0.77482 -0.09349,-0.31796 -1.224786,-0.1163 -1.890878,0.0572 -1.24721,0.32497 -1.886602,0.4983 -1.729604,1.43833 0.180149,1.07865 1.278085,6.77986 2.484953,8.32504 0.395751,0.50669 3.424987,-0.11812 6.451127,-0.74356 2.99685,-0.6194 6.37011,-1.33233 6.12084,-2.29182 -1.57477,-6.06128 -1.28233,-7.94752 -3.0314,-7.67323 -4.85147,1.02704 -3.94716,0.74816 -8.204395,1.66281 z"
           id="path4325-2-3-7"
           transform="matrix(0.7255401,0,0,0.7255401,20.072208,-6.5450382)" />
        <path
           style="fill:#f5be39;fill-opacity:1;stroke:#000000;stroke-width:0.37005;stroke-dasharray:none;stroke-opacity:1"
           d="m 103.63571,347.94997 c 0,0 4.47862,-1.09367 9.7672,-2.08934 1.0232,-0.19264 -1.92287,6.94864 -3.75184,7.49956 -1.6362,0.49286 -12.874271,3.22335 -12.399478,2.22519 0.97979,-2.05985 2.512041,-6.88771 3.723438,-7.12402 3.14756,-0.61399 2.66068,-0.51139 2.66068,-0.51139 z"
           id="path4325-7-8"
           transform="matrix(0.7255401,0,0,0.7255401,20.072208,-6.5450382)" />
        <path
           style="fill:#ce8418;fill-opacity:1;stroke:#000000;stroke-width:0.37005;stroke-dasharray:none;stroke-opacity:1"
           d="m 113.25794,366.98919 c -0.19881,-0.77306 -0.0503,-0.26368 -0.20064,-0.77482 -0.0935,-0.31796 -1.22479,-0.1163 -1.89088,0.0572 -1.24721,0.32497 -1.8866,0.4983 -1.7296,1.43833 0.18015,1.07865 1.27808,6.77986 2.48495,8.32504 0.39575,0.50669 3.42499,-0.11812 6.45113,-0.74356 2.99685,-0.6194 6.37011,-1.33233 6.12084,-2.29182 -1.57477,-6.06128 -1.28233,-7.94752 -3.0314,-7.67323 -4.85147,1.02704 -3.94716,0.74816 -8.2044,1.66281 z"
           id="path4325-2-3-7-5"
           transform="matrix(0.7255401,0,0,0.7255401,20.072208,-6.5450382)" />
        <path
           style="fill:#f5be39;fill-opacity:1;stroke:#000000;stroke-width:0.37005;stroke-dasharray:none;stroke-opacity:1"
           d="m 118.47557,368.42346 c 0,0 4.47862,-1.09367 9.7672,-2.08934 1.0232,-0.19264 -1.92287,6.94864 -3.75184,7.49956 -1.6362,0.49286 -12.87427,3.22335 -12.39948,2.22519 0.97979,-2.05985 2.51204,-6.88771 3.72344,-7.12402 3.14756,-0.61399 2.66068,-0.51139 2.66068,-0.51139 z"
           id="path4325-7-8-5"
           transform="matrix(0.7255401,0,0,0.7255401,20.072208,-6.5450382)" />
        <path
           style="fill:#ce8418;fill-opacity:1;stroke:#000000;stroke-width:0.37005;stroke-dasharray:none;stroke-opacity:1"
           d="m 127.71729,386.23209 c -0.19881,-0.77306 -0.0503,-0.26368 -0.20064,-0.77482 -0.0935,-0.31796 -1.22479,-0.1163 -1.89088,0.0572 -1.24721,0.32497 -1.8866,0.4983 -1.7296,1.43833 0.18015,1.07865 1.27808,6.77986 2.48495,8.32504 0.39575,0.50669 3.42499,-0.11812 6.45113,-0.74356 2.99685,-0.6194 6.37011,-1.33233 6.12084,-2.29182 -1.57477,-6.06128 -1.28233,-7.94752 -3.0314,-7.67323 -4.85147,1.02704 -3.94716,0.74816 -8.2044,1.66281 z"
           id="path4325-2-3-7-56"
           transform="matrix(0.7255401,0,0,0.7255401,20.072208,-6.5450382)" />
        <path
           style="fill:#f5be39;fill-opacity:1;stroke:#000000;stroke-width:0.37005;stroke-dasharray:none;stroke-opacity:1"
           d="m 132.93492,387.66636 c 0,0 4.47862,-1.09367 9.7672,-2.08934 1.0232,-0.19264 -1.92287,6.94864 -3.75184,7.49956 -1.6362,0.49286 -12.87427,3.22335 -12.39948,2.22519 0.97979,-2.05985 2.51204,-6.88771 3.72344,-7.12402 3.14756,-0.61399 2.66068,-0.51139 2.66068,-0.51139 z"
           id="path4325-7-8-4"
           transform="matrix(0.7255401,0,0,0.7255401,20.072208,-6.5450382)" />
        <rect
           style="fill:#000000;fill-opacity:1;stroke:#ffffff;stroke-width:0.466916;stroke-dasharray:none;stroke-opacity:1"
           id="rect27450-1"
           width="11.667906"
           height="38.646732"
           x="30.78985"
           y="-316.0954"
           ry="1.8607687"
           transform="matrix(-0.80155294,0.59792381,-0.591291,-0.80645827,0,0)" />
        <rect
           style="fill:#000000;fill-opacity:1;stroke:none;stroke-width:1.07061;stroke-dasharray:none;stroke-opacity:1"
           id="rect27797-1"
           width="57.44878"
           height="1.8963674"
           x="220.86902"
           y="-76.47261"
           ry="0"
           transform="rotate(90)" />
        <path
           style="opacity:1;fill:#ffffff;fill-opacity:1;stroke:#ffffff;stroke-width:0.413721;stroke-dasharray:none;stroke-opacity:1"
           d="m 97.979548,210.61308 c 6.420642,-10.98198 11.450272,-9.71069 11.450272,-9.71069 0,0 2.02472,2.27196 -0.74128,2.96758 -3.31182,0.83291 -10.708992,6.74311 -10.708992,6.74311 z"
           id="path28778" />
      </g>
    </g>
  </g>
</svg>
